<?xml version="1.0" encoding="UTF-8" standalone="no"?>
<svg
   xmlns:dc="http://purl.org/dc/elements/1.1/"
   xmlns:cc="http://creativecommons.org/ns#"
   xmlns:rdf="http://www.w3.org/1999/02/22-rdf-syntax-ns#"
   xmlns:svg="http://www.w3.org/2000/svg"
   xmlns="http://www.w3.org/2000/svg"
   xmlns:sodipodi="http://sodipodi.sourceforge.net/DTD/sodipodi-0.dtd"
   xmlns:inkscape="http://www.inkscape.org/namespaces/inkscape"
   sodipodi:docname="logo.svg"
   inkscape:version="1.0beta2 (unknown)"
   id="svg18"
   version="1.1"
   viewBox="0 0 150.36656 98.087452"
   height="75.60939mm"
   width="115.66658mm">
  <defs
     id="defs12" />
  <sodipodi:namedview
     viewbox-height="143.71788"
     scale-x="900"
     fit-margin-bottom="0"
     fit-margin-right="0"
     fit-margin-left="0"
     fit-margin-top="0"
     id="base"
     pagecolor="#ffffff"
     bordercolor="#666666"
     borderopacity="1.0"
     inkscape:pageopacity="0.0"
     inkscape:pageshadow="2"
     inkscape:zoom="1.4142136"
     inkscape:cx="129.33801"
     inkscape:cy="267.97921"
     inkscape:document-units="mm"
     inkscape:current-layer="layer1"
     inkscape:document-rotation="0"
     showgrid="false"
     inkscape:window-width="2560"
     inkscape:window-height="1052"
     inkscape:window-x="1920"
     inkscape:window-y="28"
     inkscape:window-maximized="1" />
  <metadata
     id="metadata15">
    <rdf:RDF>
      <cc:Work
         rdf:about="">
        <dc:format>image/svg+xml</dc:format>
        <dc:type
           rdf:resource="http://purl.org/dc/dcmitype/StillImage" />
        <dc:title></dc:title>
      </cc:Work>
    </rdf:RDF>
  </metadata>
  <g
     transform="translate(-110.78707,-69.783098)"
     inkscape:label="Layer 1"
     inkscape:groupmode="layer"
     id="layer1">
    <path
       inkscape:connector-curvature="0"
       id="path2"
       d="m 180.50363,82.491024 v 60.487596 h 80.65 V 82.491024 Z m 15.12184,55.446816 h -10.0813 v -10.08106 h 10.0813 z m 0,-20.16238 h -10.0813 v -10.08128 h 10.0813 z m 0,-20.162596 h -10.0813 v -10.0813 h 10.0813 z m 45.36554,40.324976 H 200.66599 V 87.531564 h 40.32502 z m 15.12206,0 h -10.08132 v -10.08106 h 10.08132 z m 0,-20.16238 h -10.08132 v -10.08128 h 10.08132 z m 0,-20.162596 h -10.08132 v -10.0813 h 10.08132 z m -45.36574,0 v 30.243916 l 20.1626,-15.12206 z"
       style="fill:#008080;stroke-width:5.04066" />
    <path
       sodipodi:nodetypes="cccccccccccccccccccsccccccccccsccccccccccc"
       inkscape:connector-curvature="0"
       id="path35"
       d="m 110.78707,69.73191 v 79.86239 l 36.85962,18.42982 V 149.5943 h 30.7164 v -24.57296 h -6.14342 v 18.42978 H 147.64669 V 88.161724 L 123.07369,75.8751 h 49.14598 v 24.573 h 6.14342 V 69.73191 Z m 6.68326,15.082134 12.03446,6.0234 c 3.708,1.85284 6.54838,4.72104 8.50708,8.6148 1.97358,3.901676 2.96364,8.123036 2.96364,12.646496 0,4.92004 -0.98914,8.22798 -2.96364,9.92296 -1.95966,1.70192 -4.79908,1.62762 -8.50708,-0.2322 l -7.71488,-3.86356 v 19.97754 l -4.31958,-2.17092 z m 4.31958,7.6912 v 19.929476 l 7.71488,3.86358 c 2.54196,1.27008 4.3651,1.26774 5.47146,-0.024 1.10754,-1.28866 1.66712,-3.38388 1.66712,-6.27532 0,-2.61164 -0.5619,-5.21816 -1.66712,-7.82304 -1.1075,-2.605376 -2.92948,-4.548536 -5.47146,-5.819296 z m 88.9574,5.10762 -0.021,9.308116 -56.92562,-0.3297 v 12.28638 l 56.94002,0.52242 0.018,8.45622 20.16262,-15.12206 z"
       style="fill:#d45500;stroke-width:6.14324" />
    <g
       aria-label="P"
       transform="matrix(0.10458494,0,0,0.0985957,166.73193,106.60172)"
       id="text48"
       style="font-style:normal;font-variant:normal;font-weight:normal;font-stretch:normal;font-size:3.0249px;line-height:1.25;font-family:Roboto;-inkscape-font-specification:'Roboto Normal';font-variant-ligatures:normal;font-variant-caps:normal;font-variant-numeric:normal;letter-spacing:0px;word-spacing:0px;fill:#00ffff;fill-opacity:1;stroke:none;stroke-width:0.0756226" />
  </g>
</svg>
