<?xml version="1.0" encoding="UTF-8" standalone="no"?>
<svg
   xmlns:dc="http://purl.org/dc/elements/1.1/"
   xmlns:cc="http://creativecommons.org/ns#"
   xmlns:rdf="http://www.w3.org/1999/02/22-rdf-syntax-ns#"
   xmlns:svg="http://www.w3.org/2000/svg"
   xmlns="http://www.w3.org/2000/svg"
   xmlns:sodipodi="http://sodipodi.sourceforge.net/DTD/sodipodi-0.dtd"
   xmlns:inkscape="http://www.inkscape.org/namespaces/inkscape"
   width="6.47611mm"
   height="4.2333298mm"
   viewBox="0 0 6.47611 4.2333298"
   version="1.1"
   id="svg18"
   inkscape:version="0.92.5 (2060ec1f9f, 2020-04-08)"
   sodipodi:docname="powerpointless_logo.svg">
  <defs
     id="defs12" />
  <sodipodi:namedview
     inkscape:window-maximized="1"
     inkscape:window-y="-8"
     inkscape:window-x="-8"
     inkscape:window-height="942"
     inkscape:window-width="2560"
     showgrid="false"
     inkscape:document-rotation="0"
     inkscape:current-layer="layer1"
     inkscape:document-units="mm"
     inkscape:cy="11.421578"
     inkscape:cx="-16.15762"
     inkscape:zoom="16"
     inkscape:pageshadow="2"
     inkscape:pageopacity="0.0"
     borderopacity="1.0"
     bordercolor="#666666"
     pagecolor="#ffffff"
     id="base"
     fit-margin-top="0"
     fit-margin-left="0"
     fit-margin-right="0"
     fit-margin-bottom="0" />
  <metadata
     id="metadata15">
    <rdf:RDF>
      <cc:Work
         rdf:about="">
        <dc:format>image/svg+xml</dc:format>
        <dc:type
           rdf:resource="http://purl.org/dc/dcmitype/StillImage" />
        <dc:title></dc:title>
      </cc:Work>
    </rdf:RDF>
  </metadata>
  <g
     id="layer1"
     inkscape:groupmode="layer"
     inkscape:label="Layer 1"
     transform="translate(-182.73229,-116.76135)">
    <path
       style="fill:#008080;stroke-width:0.217094"
       d="m 185.7349,117.31087 v 2.60513 h 3.4735 v -2.60513 z m 0.65128,2.38803 h -0.43419 v -0.43418 h 0.43419 z m 0,-0.86837 h -0.43419 v -0.43419 h 0.43419 z m 0,-0.86838 h -0.43419 v -0.43419 h 0.43419 z m 1.95384,1.73675 h -1.73675 v -2.17094 h 1.73675 z m 0.65129,0 h -0.43419 v -0.43418 h 0.43419 z m 0,-0.86837 h -0.43419 v -0.43419 h 0.43419 z m 0,-0.86838 h -0.43419 v -0.43419 h 0.43419 z m -1.95385,0 v 1.30257 l 0.86838,-0.65129 z"
       id="path2"
       inkscape:connector-curvature="0" />
    <path
       style="fill:#d45500;stroke-width:0.26458299"
       d="m 182.73229,116.76135 v 3.43958 l 1.5875,0.79375 v -0.79375 h 1.32292 v -1.05833 h -0.26459 v 0.79375 h -1.05833 v -2.38125 l -1.05833,-0.52917 h 2.11666 v 1.05833 h 0.26459 v -1.32291 z m 0.28784,0.64957 0.51831,0.25942 c 0.1597,0.0798 0.28203,0.20333 0.36639,0.37103 0.085,0.16804 0.12764,0.34985 0.12764,0.54467 0,0.2119 -0.0426,0.35437 -0.12764,0.42737 -0.0844,0.0733 -0.20669,0.0701 -0.36639,-0.01 l -0.33227,-0.1664 v 0.86041 l -0.18604,-0.0935 z m 0.18604,0.33125 v 0.85834 l 0.33227,0.1664 c 0.10948,0.0547 0.188,0.0546 0.23565,-10e-4 0.0477,-0.0555 0.0718,-0.14574 0.0718,-0.27027 0,-0.11248 -0.0242,-0.22474 -0.0718,-0.33693 -0.0477,-0.11221 -0.12617,-0.1959 -0.23565,-0.25063 z m 3.83129,0.21998 -9.2e-4,0.40089 -2.45172,-0.0142 v 0.52916 l 2.45234,0.0225 7.5e-4,0.3642 0.86838,-0.65129 z"
       id="path35"
       inkscape:connector-curvature="0"
       sodipodi:nodetypes="cccccccccccccccccccsccccccccccsccccccccccc" />
    <g
       style="font-style:normal;font-variant:normal;font-weight:normal;font-stretch:normal;font-size:3.02489996px;line-height:1.25;font-family:Roboto;-inkscape-font-specification:'Roboto Normal';font-variant-ligatures:normal;font-variant-caps:normal;font-variant-numeric:normal;letter-spacing:0px;word-spacing:0px;fill:#00ffff;fill-opacity:1;stroke:none;stroke-width:0.0756226"
       id="text48"
       transform="matrix(0.65673429,0,0,0.6191252,65.163915,41.78984)"
       aria-label="P" />
  </g>
</svg>
