<?xml version="1.0" encoding="UTF-8" standalone="no"?>
<svg
   xmlns:dc="http://purl.org/dc/elements/1.1/"
   xmlns:cc="http://creativecommons.org/ns#"
   xmlns:rdf="http://www.w3.org/1999/02/22-rdf-syntax-ns#"
   xmlns:svg="http://www.w3.org/2000/svg"
   xmlns="http://www.w3.org/2000/svg"
   xmlns:sodipodi="http://sodipodi.sourceforge.net/DTD/sodipodi-0.dtd"
   xmlns:inkscape="http://www.inkscape.org/namespaces/inkscape"
   sodipodi:docname="logo.svg"
   inkscape:version="1.0beta2 (unknown)"
   id="svg18"
   version="1.1"
   viewBox="0 0 50.122182 32.695818"
   height="25.203131mm"
   width="38.555523mm">
  <defs
     id="defs12" />
  <sodipodi:namedview
     viewbox-height="143.71788"
     scale-x="900"
     fit-margin-bottom="0"
     fit-margin-right="0"
     fit-margin-left="0"
     fit-margin-top="0"
     id="base"
     pagecolor="#ffffff"
     bordercolor="#666666"
     borderopacity="1.0"
     inkscape:pageopacity="0.0"
     inkscape:pageshadow="2"
     inkscape:zoom="0.25"
     inkscape:cx="-775.30405"
     inkscape:cy="620.41249"
     inkscape:document-units="mm"
     inkscape:current-layer="layer1"
     inkscape:document-rotation="0"
     showgrid="false"
     inkscape:window-width="1737"
     inkscape:window-height="752"
     inkscape:window-x="2587"
     inkscape:window-y="381"
     inkscape:window-maximized="0" />
  <metadata
     id="metadata15">
    <rdf:RDF>
      <cc:Work
         rdf:about="">
        <dc:format>image/svg+xml</dc:format>
        <dc:type
           rdf:resource="http://purl.org/dc/dcmitype/StillImage" />
        <dc:title></dc:title>
      </cc:Work>
    </rdf:RDF>
  </metadata>
  <g
     transform="translate(-160.90926,-102.53011)"
     inkscape:label="Layer 1"
     inkscape:groupmode="layer"
     id="layer1">
    <path
       inkscape:connector-curvature="0"
       id="path2"
       d="m 184.14811,106.74902 v 20.16253 h 26.88333 v -20.16253 z m 5.04061,18.48227 h -3.36043 v -3.36035 h 3.36043 z m 0,-6.72079 h -3.36043 v -3.36043 h 3.36043 z m 0,-6.72087 h -3.36043 v -3.36043 h 3.36043 z m 15.12185,13.44166 H 190.8689 V 108.4292 h 13.44167 z m 5.04069,0 h -3.36044 v -3.36035 h 3.36044 z m 0,-6.72079 h -3.36044 v -3.36043 h 3.36044 z m 0,-6.72087 h -3.36044 v -3.36043 h 3.36044 z m -15.12192,0 v 10.08131 l 6.72087,-5.04069 z"
       style="fill:#008080;stroke-width:1.68022" />
    <path
       sodipodi:nodetypes="cccccccccccccccccccsccccccccccsccccccccccc"
       inkscape:connector-curvature="0"
       id="path35"
       d="m 160.90926,102.49598 v 26.6208 l 12.28654,6.14327 v -6.14327 h 10.2388 v -8.19099 h -2.04781 v 6.14326 h -8.19099 v -18.4298 l -8.191,-4.09554 h 16.38199 v 8.191 h 2.04781 v -10.23873 z m 2.22775,5.02738 4.01149,2.0078 c 1.236,0.61761 2.18279,1.57368 2.83569,2.8716 0.65786,1.30056 0.98788,2.70768 0.98788,4.2155 0,1.64001 -0.32971,2.74266 -0.98788,3.30765 -0.65322,0.56731 -1.59969,0.54254 -2.83569,-0.0774 l -2.57163,-1.28785 v 6.65918 l -1.43986,-0.72364 z m 1.43986,2.56373 v 6.64316 l 2.57163,1.28786 c 0.84732,0.42336 1.45503,0.42258 1.82382,-0.008 0.36918,-0.42955 0.5557,-1.12796 0.5557,-2.09177 0,-0.87055 -0.1873,-1.73939 -0.5557,-2.60768 -0.36917,-0.86846 -0.9765,-1.51618 -1.82382,-1.93977 z m 29.65247,1.70254 -0.007,3.10271 -18.97521,-0.1099 v 4.09546 l 18.98001,0.17414 0.006,2.81874 6.72087,-5.04069 z"
       style="fill:#d45500;stroke-width:2.04775" />
    <g
       aria-label="P"
       transform="matrix(0.05229247,0,0,0.04929785,176.35114,112.73987)"
       id="text48"
       style="font-style:normal;font-variant:normal;font-weight:normal;font-stretch:normal;font-size:3.0249px;line-height:1.25;font-family:Roboto;-inkscape-font-specification:'Roboto Normal';font-variant-ligatures:normal;font-variant-caps:normal;font-variant-numeric:normal;letter-spacing:0px;word-spacing:0px;fill:#00ffff;fill-opacity:1;stroke:none;stroke-width:0.0756226" />
  </g>
</svg>
