<?xml version="1.0" encoding="UTF-8" standalone="no"?>
<svg
   xmlns:dc="http://purl.org/dc/elements/1.1/"
   xmlns:cc="http://creativecommons.org/ns#"
   xmlns:rdf="http://www.w3.org/1999/02/22-rdf-syntax-ns#"
   xmlns:svg="http://www.w3.org/2000/svg"
   xmlns="http://www.w3.org/2000/svg"
   xmlns:sodipodi="http://sodipodi.sourceforge.net/DTD/sodipodi-0.dtd"
   xmlns:inkscape="http://www.inkscape.org/namespaces/inkscape"
   sodipodi:docname="logo.svg"
   inkscape:version="1.0beta2 (unknown)"
   id="svg18"
   version="1.1"
   viewBox="0 0 75.18328 49.043726"
   height="37.804695mm"
   width="57.83329mm">
  <defs
     id="defs12" />
  <sodipodi:namedview
     viewbox-height="143.71788"
     scale-x="900"
     fit-margin-bottom="0"
     fit-margin-right="0"
     fit-margin-left="0"
     fit-margin-top="0"
     id="base"
     pagecolor="#ffffff"
     bordercolor="#666666"
     borderopacity="1.0"
     inkscape:pageopacity="0.0"
     inkscape:pageshadow="2"
     inkscape:zoom="1.4142136"
     inkscape:cx="20.046747"
     inkscape:cy="196.58686"
     inkscape:document-units="mm"
     inkscape:current-layer="layer1"
     inkscape:document-rotation="0"
     showgrid="false"
     inkscape:window-width="2560"
     inkscape:window-height="1052"
     inkscape:window-x="1920"
     inkscape:window-y="28"
     inkscape:window-maximized="1" />
  <metadata
     id="metadata15">
    <rdf:RDF>
      <cc:Work
         rdf:about="">
        <dc:format>image/svg+xml</dc:format>
        <dc:type
           rdf:resource="http://purl.org/dc/dcmitype/StillImage" />
        <dc:title></dc:title>
      </cc:Work>
    </rdf:RDF>
  </metadata>
  <g
     transform="translate(-148.37871,-94.33909)"
     inkscape:label="Layer 1"
     inkscape:groupmode="layer"
     id="layer1">
    <path
       inkscape:connector-curvature="0"
       id="path2"
       d="m 183.23699,100.68452 v 30.2438 h 40.325 v -30.2438 z m 7.56092,27.72341 h -5.04065 v -5.04053 h 5.04065 z m 0,-10.08119 h -5.04065 v -5.04064 h 5.04065 z m 0,-10.0813 h -5.04065 v -5.04065 h 5.04065 z m 22.68277,20.16249 h -20.16251 v -25.20314 h 20.16251 z m 7.56103,0 h -5.04066 v -5.04053 h 5.04066 z m 0,-10.08119 h -5.04066 v -5.04064 h 5.04066 z m 0,-10.0813 h -5.04066 v -5.04065 h 5.04066 z m -22.68287,0 v 15.12196 l 10.0813,-7.56103 z"
       style="fill:#008080;stroke-width:2.52033" />
    <path
       sodipodi:nodetypes="cccccccccccccccccccsccccccccccsccccccccccc"
       inkscape:connector-curvature="0"
       id="path35"
       d="m 148.37871,94.304963 v 39.931197 l 18.42981,9.21491 v -9.21491 h 15.3582 v -12.28648 h -3.07171 v 9.21489 h -12.28649 v -27.6447 l -12.2865,-6.143312 h 24.57299 v 12.286502 h 3.07171 V 94.304963 Z m 3.34163,7.541067 6.01723,3.0117 c 1.854,0.92642 3.27419,2.36052 4.25354,4.3074 0.98679,1.95084 1.48182,4.06152 1.48182,6.32325 0,2.46002 -0.49457,4.11399 -1.48182,4.96148 -0.97983,0.85096 -2.39954,0.81381 -4.25354,-0.1161 l -3.85744,-1.93178 v 9.98877 l -2.15979,-1.08546 z m 2.15979,3.8456 v 9.96474 l 3.85744,1.93179 c 1.27098,0.63504 2.18255,0.63387 2.73573,-0.012 0.55377,-0.64433 0.83356,-1.69194 0.83356,-3.13766 0,-1.30582 -0.28095,-2.60908 -0.83356,-3.91152 -0.55375,-1.30269 -1.46474,-2.27427 -2.73573,-2.90965 z m 44.4787,2.55381 -0.0105,4.65406 -28.46281,-0.16485 v 6.14319 l 28.47001,0.26121 0.009,4.22811 10.08131,-7.56103 z"
       style="fill:#d45500;stroke-width:3.07162" />
    <g
       aria-label="P"
       transform="matrix(0.05229247,0,0,0.04929785,176.35114,112.73987)"
       id="text48"
       style="font-style:normal;font-variant:normal;font-weight:normal;font-stretch:normal;font-size:3.0249px;line-height:1.25;font-family:Roboto;-inkscape-font-specification:'Roboto Normal';font-variant-ligatures:normal;font-variant-caps:normal;font-variant-numeric:normal;letter-spacing:0px;word-spacing:0px;fill:#00ffff;fill-opacity:1;stroke:none;stroke-width:0.0756226" />
  </g>
</svg>
