<?xml version="1.0" encoding="UTF-8" standalone="no"?>
<svg
   xmlns:dc="http://purl.org/dc/elements/1.1/"
   xmlns:cc="http://creativecommons.org/ns#"
   xmlns:rdf="http://www.w3.org/1999/02/22-rdf-syntax-ns#"
   xmlns:svg="http://www.w3.org/2000/svg"
   xmlns="http://www.w3.org/2000/svg"
   xmlns:sodipodi="http://sodipodi.sourceforge.net/DTD/sodipodi-0.dtd"
   xmlns:inkscape="http://www.inkscape.org/namespaces/inkscape"
   sodipodi:docname="logo.svg"
   inkscape:version="1.0beta2 (unknown)"
   id="svg18"
   version="1.1"
   viewBox="0 0 220.31728 144.01788"
   height="110.78299mm"
   width="169.47482mm">
  <defs
     id="defs12" />
  <sodipodi:namedview
     scale-x="900"
     fit-margin-bottom="0"
     fit-margin-right="0"
     fit-margin-left="0"
     fit-margin-top="0"
     id="base"
     pagecolor="#ffffff"
     bordercolor="#666666"
     borderopacity="1.0"
     inkscape:pageopacity="0.0"
     inkscape:pageshadow="2"
     inkscape:zoom="0.25"
     inkscape:cx="-527.8975"
     inkscape:cy="782.23743"
     inkscape:document-units="mm"
     inkscape:current-layer="layer1"
     inkscape:document-rotation="0"
     showgrid="false"
     inkscape:window-width="1737"
     inkscape:window-height="752"
     inkscape:window-x="2459"
     inkscape:window-y="216"
     inkscape:window-maximized="0" />
  <metadata
     id="metadata15">
    <rdf:RDF>
      <cc:Work
         rdf:about="">
        <dc:format>image/svg+xml</dc:format>
        <dc:type
           rdf:resource="http://purl.org/dc/dcmitype/StillImage" />
        <dc:title></dc:title>
      </cc:Work>
    </rdf:RDF>
  </metadata>
  <g
     transform="translate(-75.811714,-46.869071)"
     inkscape:label="Layer 1"
     inkscape:groupmode="layer"
     id="layer1">
    <path
       inkscape:connector-curvature="0"
       id="path2"
       d="M 177.96051,65.563741 V 154.19026 H 296.12898 V 65.563741 Z m 22.15654,81.240779 h -14.77114 v -14.7708 h 14.77114 z m 0,-29.54195 h -14.77114 v -14.77114 h 14.77114 z m 0,-29.542283 H 185.34591 V 72.949143 h 14.77114 z m 66.46964,59.084233 H 207.50245 V 72.949143 h 59.08424 z m 22.15688,0 h -14.77114 v -14.7708 h 14.77114 z m 0,-29.54195 h -14.77114 v -14.77114 h 14.77114 z m 0,-29.542283 H 273.97243 V 72.949143 h 14.77114 z m -66.46997,0 v 44.313433 l 29.54229,-22.15689 z"
       style="fill:#008080;stroke-width:7.38556" />
    <path
       sodipodi:nodetypes="cccccccccccccccccccsccccccccccsccccccccccc"
       inkscape:connector-curvature="0"
       id="path35"
       d="M 75.811714,46.869071 V 163.88358 l 54.006746,27.00338 V 163.88358 H 174.8242 V 127.8792 h -9.00135 v 27.00337 H 129.81846 V 73.872446 L 93.814077,55.870082 h 72.008773 v 36.004387 h 9.00135 V 46.869071 Z m 9.792318,22.098371 17.632908,8.825469 c 5.43299,2.714796 9.59466,6.917286 12.46458,12.62244 2.8917,5.716721 4.34232,11.901899 4.34232,18.529669 0,7.20884 -1.44925,12.05567 -4.34232,14.53913 -2.87128,2.49367 -7.03159,2.3848 -12.46458,-0.3402 l -11.303828,-5.66093 v 29.27115 l -6.32908,-3.18087 z m 6.32908,11.269125 v 29.200723 l 11.303828,5.66093 c 3.72451,1.8609 6.39576,1.85749 8.01681,-0.034 1.62275,-1.88811 2.44264,-4.95807 2.44264,-9.19458 0,-3.82657 -0.82329,-7.645658 -2.44264,-11.462362 -1.62275,-3.817384 -4.2923,-6.664518 -8.01681,-8.526433 z m 130.340488,7.48372 -0.0302,13.638273 -83.40752,-0.48308 v 18.00202 l 83.42861,0.76545 0.0265,12.39009 29.54229,-22.15689 z"
       style="fill:#d45500;stroke-width:9.00109" />
    <g
       aria-label="P"
       transform="matrix(0.229857,0,0,0.21669382,143.68809,91.897153)"
       id="text48"
       style="font-style:normal;font-variant:normal;font-weight:normal;font-stretch:normal;font-size:3.0249px;line-height:1.25;font-family:Roboto;-inkscape-font-specification:'Roboto Normal';font-variant-ligatures:normal;font-variant-caps:normal;font-variant-numeric:normal;letter-spacing:0px;word-spacing:0px;fill:#00ffff;fill-opacity:1;stroke:none;stroke-width:0.0756226" />
  </g>
</svg>
